<svg id="Layer_1" data-name="Layer 1" xmlns="http://www.w3.org/2000/svg" viewBox="0 0 300 300"><title>Time</title><path d="M150,298.31a145.76,145.76,0,0,0,81.52-25,148,148,0,0,0,54-66.56A149.46,149.46,0,0,0,253.76,45.12,145.91,145.91,0,0,0,28,67.6a149.39,149.39,0,0,0,18.3,187.23A146.1,146.1,0,0,0,150,298.31Zm0-272.5a122,122,0,0,1,68.27,20.94,123.91,123.91,0,0,1,45.25,55.73,125.16,125.16,0,0,1-26.64,135.34A122.18,122.18,0,0,1,47.82,219,125.12,125.12,0,0,1,63.15,62.22,122.37,122.37,0,0,1,150,25.81Z"/><path d="M184.8,194.1a11.93,11.93,0,0,0,6.76-2.11,12.15,12.15,0,0,0,1.29-18.88l-30.93-28.46V54.32a12.1,12.1,0,0,0-3.5-8.52,11.83,11.83,0,0,0-16.88,0,12.13,12.13,0,0,0-3.49,8.52v101L176.76,191A11.86,11.86,0,0,0,184.8,194.1Z"/></svg>